<?xml version="1.0" encoding="iso-8859-1"?>
<!-- Generator: Adobe Illustrator 19.0.0, SVG Export Plug-In . SVG Version: 6.00 Build 0)  -->
<svg version="1.1" id="Capa_1" xmlns="http://www.w3.org/2000/svg" xmlns:xlink="http://www.w3.org/1999/xlink" x="0px" y="0px"
	 viewBox="0 0 290.281 290.281" style="enable-background:new 0 0 290.281 290.281; stroke: lightpink; fill: lightpink;" xml:space="preserve">
<path id="XMLID_933_" d="M205.367,0h-30v173.645c-6.239-2.565-13.111-3.921-20.305-3.921c-17.458,0-35.266,7.796-48.858,21.388
	c-25.343,25.343-28.515,63.407-7.071,84.853c9.232,9.232,22.016,14.316,35.995,14.316c17.458,0,35.266-7.796,48.858-21.388
	c11.843-11.843,19.307-26.842,21.018-42.233c0.244-2.199,0.364-6.538,0.364-6.538V0z M175.187,223.346
	c-0.947,8.523-5.472,17.393-12.414,24.335c-7.89,7.89-18.225,12.601-27.645,12.601c-4.221,0-10.211-0.959-14.781-5.529
	c-9.582-9.583-6.344-29.012,7.071-42.426c7.89-7.891,18.225-12.602,27.645-12.602c4.221,0,10.212,0.959,14.782,5.529
	C175.602,211.012,175.663,219.061,175.187,223.346z"/>
<g>
</g>
<g>
</g>
<g>
</g>
<g>
</g>
<g>
</g>
<g>
</g>
<g>
</g>
<g>
</g>
<g>
</g>
<g>
</g>
<g>
</g>
<g>
</g>
<g>
</g>
<g>
</g>
<g>
</g>
</svg>
