<?xml version="1.0" encoding="UTF-8" standalone="no"?>
<svg
   xmlns:dc="http://purl.org/dc/elements/1.1/"
   xmlns:cc="http://creativecommons.org/ns#"
   xmlns:rdf="http://www.w3.org/1999/02/22-rdf-syntax-ns#"
   xmlns:svg="http://www.w3.org/2000/svg"
   xmlns="http://www.w3.org/2000/svg"
   xmlns:sodipodi="http://sodipodi.sourceforge.net/DTD/sodipodi-0.dtd"
   xmlns:inkscape="http://www.inkscape.org/namespaces/inkscape"
   sodipodi:docname="paint-brush-small-random.svg"
   inkscape:version="1.0 (4035a4f, 2020-05-01)"
   id="svg8"
   version="1.1"
   viewBox="0 0 135.63022 135.74089"
   height="135.74089mm"
   width="135.63022mm">
  <defs
     id="defs2" />
  <sodipodi:namedview
     inkscape:window-maximized="0"
     inkscape:window-y="587"
     inkscape:window-x="1920"
     inkscape:window-height="922"
     inkscape:window-width="1680"
     showgrid="false"
     inkscape:document-rotation="0"
     inkscape:current-layer="layer1"
     inkscape:document-units="mm"
     inkscape:cy="554.39511"
     inkscape:cx="397.99884"
     inkscape:zoom="0.35"
     inkscape:pageshadow="2"
     inkscape:pageopacity="0.0"
     borderopacity="1.0"
     bordercolor="#666666"
     pagecolor="#ffffff"
     id="base" />
  <metadata
     id="metadata5">
    <rdf:RDF>
      <cc:Work
         rdf:about="">
        <dc:format>image/svg+xml</dc:format>
        <dc:type
           rdf:resource="http://purl.org/dc/dcmitype/StillImage" />
        <dc:title></dc:title>
      </cc:Work>
    </rdf:RDF>
  </metadata>
  <g
     transform="translate(-0.52947345,-1.4829605)"
     id="layer1"
     inkscape:groupmode="layer"
     inkscape:label="Calque 1">
    <g
       transform="matrix(0.26458333,0,0,0.26458333,0.66821666,1.6148834)"
       id="g844"
       style="fill:#58a4b0;stroke:#58a4b0">
      <path
         d="M 500.02734,11.566406 C 485.32422,-3.132812 461.55859,-3.921875 445.91797,9.773438 L 135.99609,281.125 l -1.75781,1.53906 -36.820311,61.07813 c -19.753907,-0.76953 -39.765625,6.35547 -54.8125,21.40625 -16.085938,16.08203 -28.015625,43.11328 -35.460938,80.33593 -5.328125,26.64454 -6.359375,48.78907 -6.398437,49.71875 L 0,512 16.773438,510.82812 c 0.949218,-0.0664 23.539062,-1.6875 50.355468,-7.29687 37.566404,-7.85547 64.253904,-19.47656 79.316404,-34.53906 15.05078,-15.05078 22.17578,-35.0625 21.40235,-54.81641 L 228.92969,377.35937 501.82031,65.675781 C 515.51563,50.035156 514.73047,26.265625 500.02734,11.566406 Z M 178.96484,283.375 l 21.40235,-18.73828 46.59375,46.59375 -18.73828,21.40234 z m -53.72656,164.40625 c -18.03125,18.02734 -63.859374,27.46094 -93.062499,31.29297 3.277344,-28.50781 12.195313,-73.26953 31.640625,-92.71485 16.933594,-16.9375 44.488284,-16.93359 61.421874,0 16.9336,16.9336 16.9336,44.48438 0,61.42188 z m 21.20703,-82.63281 C 140.8125,359.51172 134.47266,355 127.71484,351.58594 l 28.97657,-48.06641 51.38281,51.38281 -48.06641,28.97657 c -3.41406,-6.75782 -7.92578,-13.09375 -13.5625,-18.73047 z M 479.25391,45.917969 266.76172,288.61328 222.98047,244.83203 465.67578,32.339844 c 3.80078,-3.324219 9.57031,-3.132813 13.14063,0.4375 3.57031,3.570312 3.76172,9.339844 0.4375,13.140625 z m 0,0"
         id="path833" />
    </g>
    <g
       transform="matrix(0.10547063,0,0,0.10547063,76.66113,77.352518)"
       id="g961"
       style="fill:#58a4b0;stroke:#58a4b0">
      <g
         id="g850">
	<g
   id="g848">
		<path
   d="m 236.604,235.823 c -21.821,0 -39.572,17.752 -39.572,39.572 0,21.82 17.753,39.572 39.572,39.572 21.819,0 39.572,-17.752 39.572,-39.572 0,-21.82 -17.751,-39.572 -39.572,-39.572 z m 0,49.138 c -5.274,0 -9.565,-4.29 -9.565,-9.565 0,-5.274 4.291,-9.565 9.565,-9.565 5.274,0 9.565,4.29 9.565,9.565 -0.001,5.275 -4.291,9.565 -9.565,9.565 z"
   id="path846" />

	</g>

</g>
      <g
         id="g856">
	<g
   id="g854">
		<path
   d="m 90.247,235.823 c -21.821,0 -39.572,17.752 -39.572,39.572 0,21.82 17.752,39.572 39.572,39.572 21.82,0 39.572,-17.752 39.572,-39.572 0,-21.82 -17.751,-39.572 -39.572,-39.572 z m 0,49.138 c -5.274,0 -9.565,-4.29 -9.565,-9.565 0,-5.274 4.29,-9.565 9.565,-9.565 5.273,0 9.565,4.29 9.565,9.565 0,5.275 -4.29,9.565 -9.565,9.565 z"
   id="path852" />

	</g>

</g>
      <g
         id="g862">
	<g
   id="g860">
		<path
   d="m 236.604,382.182 c -21.82,0 -39.572,17.752 -39.572,39.572 0,21.821 17.752,39.572 39.572,39.572 21.821,0 39.572,-17.752 39.572,-39.572 0,-21.821 -17.752,-39.572 -39.572,-39.572 z m 0,49.136 c -5.273,0 -9.565,-4.29 -9.565,-9.565 0,-5.275 4.29,-9.565 9.565,-9.565 5.274,0 9.565,4.29 9.565,9.565 0,5.275 -4.292,9.565 -9.565,9.565 z"
   id="path858" />

	</g>

</g>
      <g
         id="g868">
	<g
   id="g866">
		<path
   d="m 90.247,382.181 c -21.821,0 -39.572,17.752 -39.572,39.572 0,21.82 17.752,39.572 39.572,39.572 21.82,0 39.572,-17.752 39.572,-39.572 0,-21.82 -17.751,-39.572 -39.572,-39.572 z m 0,49.138 c -5.274,0 -9.565,-4.29 -9.565,-9.565 0,-5.274 4.29,-9.565 9.565,-9.565 5.273,0 9.565,4.29 9.565,9.565 0,5.275 -4.29,9.565 -9.565,9.565 z"
   id="path864" />

	</g>

</g>
      <g
         id="g874">
	<g
   id="g872">
		<path
   d="m 163.426,309.003 c -21.821,0 -39.572,17.752 -39.572,39.572 0,21.821 17.752,39.572 39.572,39.572 21.82,0 39.572,-17.752 39.572,-39.572 0,-21.821 -17.752,-39.572 -39.572,-39.572 z m 0,49.138 c -5.274,0 -9.565,-4.29 -9.565,-9.565 0,-5.275 4.29,-9.565 9.565,-9.565 5.273,0 9.565,4.29 9.565,9.565 0,5.275 -4.291,9.565 -9.565,9.565 z"
   id="path870" />

	</g>

</g>
      <g
         id="g880">
	<g
   id="g878">
		<path
   d="M 196.287,0 146.676,185.15 H 0.001 V 512.001 H 326.852 V 373.364 L 427.407,400.307 512,84.594 Z M 296.844,481.992 H 30.008 V 215.158 H 296.843 V 481.992 Z M 406.188,363.556 326.852,342.298 v -37.86 c 4.48,11.189 13.988,20.211 26.498,23.563 3.409,0.914 6.869,1.366 10.308,1.366 6.856,0 13.624,-1.798 19.721,-5.318 9.153,-5.285 15.701,-13.818 18.438,-24.028 5.648,-21.076 -6.905,-42.817 -27.982,-48.465 -19.547,-5.236 -39.662,5.189 -46.982,23.547 V 185.15 h -149.11 l 39.763,-148.397 257.743,69.061 z m -51.835,-76.251 c 1.366,-5.093 6.615,-8.133 11.715,-6.763 5.093,1.364 8.127,6.619 6.762,11.713 -0.661,2.468 -2.244,4.529 -4.455,5.808 -2.214,1.276 -4.788,1.618 -7.258,0.954 -5.094,-1.366 -8.127,-6.619 -6.764,-11.712 z"
   id="path876" />

	</g>

</g>
      <g
         id="g886">
	<g
   id="g884">
		<path
   d="m 270.343,72.304 c -21.074,-5.641 -42.817,6.905 -48.465,27.983 -5.647,21.076 6.905,42.817 27.982,48.465 3.418,0.915 6.852,1.353 10.233,1.353 17.47,0 33.501,-11.676 38.233,-29.335 5.648,-21.075 -6.906,-42.816 -27.983,-48.466 z m -1.002,40.701 c -1.364,5.094 -6.621,8.128 -11.714,6.762 -5.093,-1.364 -8.127,-6.619 -6.762,-11.713 1.144,-4.268 5.017,-7.09 9.239,-7.09 0.816,0 1.646,0.105 2.473,0.326 5.094,1.365 8.129,6.62 6.764,11.715 z"
   id="path882" />

	</g>

</g>
      <g
         id="g888">
</g>
      <g
         id="g890">
</g>
      <g
         id="g892">
</g>
      <g
         id="g894">
</g>
      <g
         id="g896">
</g>
      <g
         id="g898">
</g>
      <g
         id="g900">
</g>
      <g
         id="g902">
</g>
      <g
         id="g904">
</g>
      <g
         id="g906">
</g>
      <g
         id="g908">
</g>
      <g
         id="g910">
</g>
      <g
         id="g912">
</g>
      <g
         id="g914">
</g>
      <g
         id="g916">
</g>
    </g>
  </g>
</svg>
