<svg viewBox="0 0 512 512.00048" xmlns="http://www.w3.org/2000/svg" style="enable-background:new 0 0 512 512; stroke: #58A4B0; fill: #58A4B0"><path d="m500.027344 11.566406c-14.703125-14.699218-38.46875-15.488281-54.109375-1.792968l-309.921875 271.351562-1.757813 1.539062-36.820312 61.078126c-19.753907-.769532-39.765625 6.355468-54.8125 21.40625-16.085938 16.082031-28.015625 43.113281-35.460938 80.335937-5.328125 26.644531-6.359375 48.789063-6.398437 49.71875l-.746094 16.796875 16.773438-1.171875c.949218-.066406 23.539062-1.6875 50.355468-7.296875 37.566406-7.855469 64.253906-19.476562 79.316406-34.539062 15.050782-15.050782 22.175782-35.0625 21.402344-54.816407l61.082032-36.816406 272.890624-311.683594c13.695313-15.640625 12.910157-39.410156-1.792968-54.109375zm-321.0625 271.808594 21.402344-18.738281 46.59375 46.59375-18.738282 21.402343zm-53.726563 164.40625c-18.03125 18.027344-63.859375 27.460938-93.0625 31.292969 3.277344-28.507813 12.195313-73.269531 31.640625-92.714844 16.933594-16.9375 44.488282-16.933594 61.421875 0 16.933594 16.933594 16.933594 44.484375 0 61.421875zm21.207031-82.632812c-5.632812-5.636719-11.972656-10.148438-18.730468-13.5625l28.976562-48.066407 51.382813 51.382813-48.066407 28.976562c-3.414062-6.757812-7.925781-13.09375-13.5625-18.730468zm332.808594-319.230469-212.492187 242.695312-43.78125-43.78125 242.695312-212.492187c3.800781-3.324219 9.570313-3.132813 13.140625.4375 3.570313 3.570312 3.761719 9.339844.4375 13.140625zm0 0"/></svg>
