<?xml version="1.0" encoding="UTF-8" standalone="no"?>
<svg
   xmlns:dc="http://purl.org/dc/elements/1.1/"
   xmlns:cc="http://creativecommons.org/ns#"
   xmlns:rdf="http://www.w3.org/1999/02/22-rdf-syntax-ns#"
   xmlns:svg="http://www.w3.org/2000/svg"
   xmlns="http://www.w3.org/2000/svg"
   xmlns:sodipodi="http://sodipodi.sourceforge.net/DTD/sodipodi-0.dtd"
   xmlns:inkscape="http://www.inkscape.org/namespaces/inkscape"
   sodipodi:docname="paint-roller-random.svg"
   inkscape:version="1.0 (4035a4f, 2020-05-01)"
   id="svg8"
   version="1.1"
   viewBox="0 0 135.63022 135.74089"
   height="135.74089mm"
   width="135.63022mm">
  <defs
     id="defs2" />
  <sodipodi:namedview
     inkscape:snap-others="false"
     inkscape:window-maximized="0"
     inkscape:window-y="587"
     inkscape:window-x="1920"
     inkscape:window-height="922"
     inkscape:window-width="1680"
     showgrid="false"
     inkscape:document-rotation="0"
     inkscape:current-layer="layer1"
     inkscape:document-units="mm"
     inkscape:cy="554.39511"
     inkscape:cx="397.99884"
     inkscape:zoom="0.35"
     inkscape:pageshadow="2"
     inkscape:pageopacity="0.0"
     borderopacity="1.0"
     bordercolor="#666666"
     pagecolor="#ffffff"
     id="base" />
  <metadata
     id="metadata5">
    <rdf:RDF>
      <cc:Work
         rdf:about="">
        <dc:format>image/svg+xml</dc:format>
        <dc:type
           rdf:resource="http://purl.org/dc/dcmitype/StillImage" />
        <dc:title></dc:title>
      </cc:Work>
    </rdf:RDF>
  </metadata>
  <g
     transform="translate(-0.52947345,-1.4829605)"
     id="layer1"
     inkscape:groupmode="layer"
     inkscape:label="Calque 1">
    <g
       transform="matrix(0.10547063,0,0,0.10547063,76.66113,77.352518)"
       id="g961"
       style="fill:#58a4b0;stroke:#58a4b0">
      <g
         id="g850">
	<g
   id="g848">
		<path
   d="m 236.604,235.823 c -21.821,0 -39.572,17.752 -39.572,39.572 0,21.82 17.753,39.572 39.572,39.572 21.819,0 39.572,-17.752 39.572,-39.572 0,-21.82 -17.751,-39.572 -39.572,-39.572 z m 0,49.138 c -5.274,0 -9.565,-4.29 -9.565,-9.565 0,-5.274 4.291,-9.565 9.565,-9.565 5.274,0 9.565,4.29 9.565,9.565 -0.001,5.275 -4.291,9.565 -9.565,9.565 z"
   id="path846" />

	</g>

</g>
      <g
         id="g856">
	<g
   id="g854">
		<path
   d="m 90.247,235.823 c -21.821,0 -39.572,17.752 -39.572,39.572 0,21.82 17.752,39.572 39.572,39.572 21.82,0 39.572,-17.752 39.572,-39.572 0,-21.82 -17.751,-39.572 -39.572,-39.572 z m 0,49.138 c -5.274,0 -9.565,-4.29 -9.565,-9.565 0,-5.274 4.29,-9.565 9.565,-9.565 5.273,0 9.565,4.29 9.565,9.565 0,5.275 -4.29,9.565 -9.565,9.565 z"
   id="path852" />

	</g>

</g>
      <g
         id="g862">
	<g
   id="g860">
		<path
   d="m 236.604,382.182 c -21.82,0 -39.572,17.752 -39.572,39.572 0,21.821 17.752,39.572 39.572,39.572 21.821,0 39.572,-17.752 39.572,-39.572 0,-21.821 -17.752,-39.572 -39.572,-39.572 z m 0,49.136 c -5.273,0 -9.565,-4.29 -9.565,-9.565 0,-5.275 4.29,-9.565 9.565,-9.565 5.274,0 9.565,4.29 9.565,9.565 0,5.275 -4.292,9.565 -9.565,9.565 z"
   id="path858" />

	</g>

</g>
      <g
         id="g868">
	<g
   id="g866">
		<path
   d="m 90.247,382.181 c -21.821,0 -39.572,17.752 -39.572,39.572 0,21.82 17.752,39.572 39.572,39.572 21.82,0 39.572,-17.752 39.572,-39.572 0,-21.82 -17.751,-39.572 -39.572,-39.572 z m 0,49.138 c -5.274,0 -9.565,-4.29 -9.565,-9.565 0,-5.274 4.29,-9.565 9.565,-9.565 5.273,0 9.565,4.29 9.565,9.565 0,5.275 -4.29,9.565 -9.565,9.565 z"
   id="path864" />

	</g>

</g>
      <g
         id="g874">
	<g
   id="g872">
		<path
   d="m 163.426,309.003 c -21.821,0 -39.572,17.752 -39.572,39.572 0,21.821 17.752,39.572 39.572,39.572 21.82,0 39.572,-17.752 39.572,-39.572 0,-21.821 -17.752,-39.572 -39.572,-39.572 z m 0,49.138 c -5.274,0 -9.565,-4.29 -9.565,-9.565 0,-5.275 4.29,-9.565 9.565,-9.565 5.273,0 9.565,4.29 9.565,9.565 0,5.275 -4.291,9.565 -9.565,9.565 z"
   id="path870" />

	</g>

</g>
      <g
         id="g880">
	<g
   id="g878">
		<path
   d="M 196.287,0 146.676,185.15 H 0.001 V 512.001 H 326.852 V 373.364 L 427.407,400.307 512,84.594 Z M 296.844,481.992 H 30.008 V 215.158 H 296.843 V 481.992 Z M 406.188,363.556 326.852,342.298 v -37.86 c 4.48,11.189 13.988,20.211 26.498,23.563 3.409,0.914 6.869,1.366 10.308,1.366 6.856,0 13.624,-1.798 19.721,-5.318 9.153,-5.285 15.701,-13.818 18.438,-24.028 5.648,-21.076 -6.905,-42.817 -27.982,-48.465 -19.547,-5.236 -39.662,5.189 -46.982,23.547 V 185.15 h -149.11 l 39.763,-148.397 257.743,69.061 z m -51.835,-76.251 c 1.366,-5.093 6.615,-8.133 11.715,-6.763 5.093,1.364 8.127,6.619 6.762,11.713 -0.661,2.468 -2.244,4.529 -4.455,5.808 -2.214,1.276 -4.788,1.618 -7.258,0.954 -5.094,-1.366 -8.127,-6.619 -6.764,-11.712 z"
   id="path876" />

	</g>

</g>
      <g
         id="g886">
	<g
   id="g884">
		<path
   d="m 270.343,72.304 c -21.074,-5.641 -42.817,6.905 -48.465,27.983 -5.647,21.076 6.905,42.817 27.982,48.465 3.418,0.915 6.852,1.353 10.233,1.353 17.47,0 33.501,-11.676 38.233,-29.335 5.648,-21.075 -6.906,-42.816 -27.983,-48.466 z m -1.002,40.701 c -1.364,5.094 -6.621,8.128 -11.714,6.762 -5.093,-1.364 -8.127,-6.619 -6.762,-11.713 1.144,-4.268 5.017,-7.09 9.239,-7.09 0.816,0 1.646,0.105 2.473,0.326 5.094,1.365 8.129,6.62 6.764,11.715 z"
   id="path882" />

	</g>

</g>
      <g
         id="g888">
</g>
      <g
         id="g890">
</g>
      <g
         id="g892">
</g>
      <g
         id="g894">
</g>
      <g
         id="g896">
</g>
      <g
         id="g898">
</g>
      <g
         id="g900">
</g>
      <g
         id="g902">
</g>
      <g
         id="g904">
</g>
      <g
         id="g906">
</g>
      <g
         id="g908">
</g>
      <g
         id="g910">
</g>
      <g
         id="g912">
</g>
      <g
         id="g914">
</g>
      <g
         id="g916">
</g>
    </g>
    <g
       transform="matrix(0.22037559,0,0,0.22037559,0.63966125,1.5931483)"
       id="g1002"
       style="fill:#58a4b0;stroke:#58a4b0">
      <path
         d="M 440.66797,53.734375 V 32.75 C 440.66797,14.691406 425.97656,0 407.91797,0 H 32.75 C 14.691406,0 0,14.691406 0,32.75 v 87.5 c 0,10.49219 4.96875,19.84375 12.667969,25.84375 V 267.58203 C 12.667969,289.86719 30.796875,308 53.082031,308 75.367188,308 93.5,289.86719 93.5,267.58203 v -36 C 93.5,229.60547 95.105469,228 97.082031,228 c 1.976563,0 3.585939,1.60547 3.585939,3.58203 V 239 c 0,22.23828 18.09375,40.33203 40.33203,40.33203 22.23828,0 40.33203,-18.09375 40.33203,-40.33203 v -86 h 226.58594 c 18.05859,0 32.75,-14.69141 32.75,-32.75 V 83.734375 H 482 v 72.875005 c 0,5.01953 -2.87109,9.46875 -7.38281,11.54687 L 241,225.83203 v 97.48438 H 203.23828 V 512 H 308.76172 V 323.31641 H 271 v -73.99219 l 212.87109,-52.55469 0.90235,-0.35156 C 501.3125,189.98047 512,174.35547 512,156.60938 V 53.734375 Z M 151.33203,239 c 0,5.69531 -4.63672,10.33203 -10.33203,10.33203 -5.69531,0 -10.33203,-4.63672 -10.33203,-10.33203 v -7.41797 C 130.66797,213.06641 115.60156,198 97.082031,198 78.566406,198 63.5,213.06641 63.5,231.58203 v 36 C 63.5,273.32813 58.828125,278 53.082031,278 47.339844,278 42.667969,273.32812 42.667969,267.58203 V 153 H 151.33203 Z M 410.66797,120.25 c 0,1.51563 -1.23438,2.75 -2.75,2.75 H 32.75 C 31.234375,123 30,121.76563 30,120.25 V 32.75 C 30,31.234375 31.234375,30 32.75,30 h 375.16797 c 1.51562,0 2.75,1.234375 2.75,2.75 z M 233.23828,482 v -30.39453 h 45.52344 V 482 Z m 45.52344,-60.39453 h -45.52344 v -68.28906 h 45.52344 z m 0,0"
         id="path991" />
    </g>
  </g>
</svg>
