<?xml version="1.0" encoding="iso-8859-1"?>
<!-- Generator: Adobe Illustrator 19.0.0, SVG Export Plug-In . SVG Version: 6.00 Build 0)  -->
<svg version="1.1" id="Capa_1" xmlns="http://www.w3.org/2000/svg" xmlns:xlink="http://www.w3.org/1999/xlink" x="0px" y="0px"
	 viewBox="0 0 512 512" style="enable-background:new 0 0 512 512; stroke: lightpink; fill: lightpink" xml:space="preserve">
<g>
	<g>
		<path d="M176,223c-5.52,0-10,4.48-10,10s4.48,10,10,10s10-4.48,10-10S181.52,223,176,223z"/>
	</g>
</g>
<g>
	<g>
		<path d="M482,140H306v-10c0-16.542-13.458-30-30-30h-10V90c0-16.542,13.458-30,30-30h80c27.57,0,50-22.43,50-50
			c0-5.522-4.477-10-10-10s-10,4.478-10,10c0,16.542-13.458,30-30,30h-80c-27.57,0-50,22.43-50,50v10h-10c-16.542,0-30,13.458-30,30
			v10H30c-16.542,0-30,13.458-30,30v312c0,16.542,13.458,30,30,30h452c16.542,0,30-13.458,30-30V170
			C512,153.458,498.542,140,482,140z M226,130c0-5.514,4.486-10,10-10h40c5.514,0,10,4.486,10,10v10h-60V130z M106,492H66V366h20v76
			c0,5.522,4.477,10,10,10h10V492z M186,492h-60v-40h10c5.523,0,10-4.478,10-10v-76h20v76c0,5.522,4.477,10,10,10h10V492z M106,432
			v-66h20v66H106z M246,492h-40v-40h10c5.523,0,10-4.478,10-10v-76h20V492z M186,432v-66h20v66H186z M306,492h-40V366h20v76
			c0,5.522,4.477,10,10,10h10V492z M386,492h-60v-40h10c5.523,0,10-4.478,10-10v-76h20v76c0,5.522,4.477,10,10,10h10V492z M306,432
			v-66h20v66H306z M446,492h-40v-40h10c5.523,0,10-4.478,10-10v-76h20V492z M386,432v-66h20v66H386z M492,482
			c0,5.514-4.486,10-10,10h-16V356c0-5.522-4.477-10-10-10H56c-5.523,0-10,4.478-10,10v136H30c-5.514,0-10-4.486-10-10V326h472V482z
			 M492,306H20V170c0-5.514,4.486-10,10-10h452c5.514,0,10,4.486,10,10V306z"/>
	</g>
</g>
<g>
	<g>
		<path d="M216,183H56c-5.523,0-10,4.478-10,10v80c0,5.522,4.477,10,10,10h160c5.523,0,10-4.478,10-10v-80
			C226,187.478,221.523,183,216,183z M206,263H66v-60h140V263z"/>
	</g>
</g>
<g>
	<g>
		<path d="M296,203h-10v-10c0-5.522-4.477-10-10-10s-10,4.478-10,10v10h-10c-5.523,0-10,4.478-10,10c0,5.522,4.477,10,10,10h10v50
			c0,5.522,4.477,10,10,10s10-4.478,10-10v-50h10c5.523,0,10-4.478,10-10C306,207.478,301.523,203,296,203z"/>
	</g>
</g>
<g>
	<g>
		<path d="M376,243h-10v-50c0-5.522-4.477-10-10-10s-10,4.478-10,10v50h-10c-5.523,0-10,4.478-10,10c0,5.522,4.477,10,10,10h10v10
			c0,5.522,4.477,10,10,10s10-4.478,10-10v-10h10c5.523,0,10-4.478,10-10C386,247.478,381.523,243,376,243z"/>
	</g>
</g>
<g>
	<g>
		<path d="M456,203h-10v-10c0-5.522-4.477-10-10-10s-10,4.478-10,10v10h-10c-5.523,0-10,4.478-10,10c0,5.522,4.477,10,10,10h10v50
			c0,5.522,4.477,10,10,10s10-4.478,10-10v-50h10c5.523,0,10-4.478,10-10C466,207.478,461.523,203,456,203z"/>
	</g>
</g>
<g>
	<g>
		<path d="M136,223H96c-5.523,0-10,4.478-10,10c0,5.522,4.477,10,10,10h40c5.523,0,10-4.478,10-10C146,227.478,141.523,223,136,223z
			"/>
	</g>
</g>
<g>
</g>
<g>
</g>
<g>
</g>
<g>
</g>
<g>
</g>
<g>
</g>
<g>
</g>
<g>
</g>
<g>
</g>
<g>
</g>
<g>
</g>
<g>
</g>
<g>
</g>
<g>
</g>
<g>
</g>
</svg>
