<svg viewBox="0 0 512 512" xmlns="http://www.w3.org/2000/svg" style="enable-background:new 0 0 512 512; stroke: #58A4B0; fill: #58A4B0"><path d="m440.667969 53.734375v-20.984375c0-18.058594-14.691407-32.75-32.75-32.75h-375.167969c-18.058594 0-32.75 14.691406-32.75 32.75v87.5c0 10.492188 4.96875 19.84375 12.667969 25.84375v121.488281c0 22.285157 18.128906 40.417969 40.414062 40.417969 22.285157 0 40.417969-18.132812 40.417969-40.417969v-36c0-1.976562 1.605469-3.582031 3.582031-3.582031 1.976563 0 3.585938 1.605469 3.585938 3.582031v7.417969c0 22.238281 18.09375 40.332031 40.332031 40.332031s40.332031-18.09375 40.332031-40.332031v-86h226.585938c18.058593 0 32.75-14.691406 32.75-32.75v-36.515625h41.332031v72.875c0 5.019531-2.871094 9.46875-7.382812 11.546875l-233.617188 57.675781v97.484375h-37.761719v188.683594h105.523438v-188.683594h-37.761719v-73.992187l212.871094-52.554688.902344-.351562c16.539062-6.4375 27.226562-22.0625 27.226562-39.808594v-102.875zm-289.335938 185.265625c0 5.695312-4.636719 10.332031-10.332031 10.332031s-10.332031-4.636719-10.332031-10.332031v-7.417969c0-18.515625-15.066407-33.582031-33.585938-33.582031-18.515625 0-33.582031 15.066406-33.582031 33.582031v36c0 5.746094-4.671875 10.417969-10.417969 10.417969-5.742187 0-10.414062-4.671875-10.414062-10.417969v-114.582031h108.664062zm259.335938-118.75c0 1.515625-1.234375 2.75-2.75 2.75h-375.167969c-1.515625 0-2.75-1.234375-2.75-2.75v-87.5c0-1.515625 1.234375-2.75 2.75-2.75h375.167969c1.515625 0 2.75 1.234375 2.75 2.75zm-177.429688 361.75v-30.394531h45.523438v30.394531zm45.523438-60.394531h-45.523438v-68.289063h45.523438zm0 0"/></svg>
