<?xml version="1.0" encoding="UTF-8"?>
<!-- Generator: Adobe Illustrator 22.1.0, SVG Export Plug-In . SVG Version: 6.00 Build 0)  -->
<svg version="1.1" id="レイヤー_1" xmlns="http://www.w3.org/2000/svg" xmlns:xlink="http://www.w3.org/1999/xlink" x="0px" y="0px" viewBox="0 0 1235.3 204.4" style="enable-background:new 0 0 1235.3 204.4;" xml:space="preserve">
<style type="text/css">
	.st0{fill:#003366;}
	.st1{fill:#A8A8A8;}
	.st2{fill:#DE007F;}
	.st3{fill:#A60075;}
	.st4{fill:#292A80;}
	.st5{fill:#009AE3;}
	.st6{fill:#9BC5E7;}
	.st7{fill:#00679F;}
</style>
<g>
	<g>
		<g>
			<g>
				<g>
					<g>
						<g>
							<path d="M466.2,36.4c-10.5-4-21.9-5.9-32.6-5.9c-13.3,0-27.2,4.6-27.2,19.6c0,11.8,8.2,17.7,29.9,26.5         c26.5,10.7,42.3,21.5,42.3,46.3c0,29.9-25.9,43-53.1,43c-13.5,0-30.5-2.5-45.1-8.4l5.1-20.4c13.7,6.1,28.4,8.8,39.6,8.8         c17.5,0,29.1-7,29.1-21.3c0-13.1-11.4-19.8-32.9-28.4c-24.9-10.1-39.6-22.5-39.6-44c0-29.5,26.7-41.7,51-41.7         c13.9,0,27.4,1.9,38.3,5.9L466.2,36.4z"/>
							<path d="M549.6,165.9c-33.1,0-54.1-22.1-54.1-58.3s21.1-57.9,54.1-57.9c33.3,0,54.1,21.7,54.1,57.9         C603.7,143.8,582.7,165.9,549.6,165.9z M549.6,67.9c-20.6,0-30.1,16.4-30.1,39.6c0,23.8,9.9,40,30.1,40         c20.6,0,30.1-16.2,30.1-40C579.7,84.4,570.2,67.9,549.6,67.9z"/>
							<path d="M646.5,52.2v15.6h0.4c6.1-11.6,19.4-18.1,34.3-18.1c25.1,0,40.4,16,40.4,40.4v73.3h-24V99.1         c0-19.4-5.1-31.2-23.4-31.2c-13.3,0-27.2,9.5-27.2,33.9v61.5h-24V52.2H646.5z"/>
							<path d="M791.6,134.1h0.4l29.7-81.9H847l-60.4,152.3h-25.3l17.9-43.4L735.5,52.2h26.1L791.6,134.1z"/>
							<path d="M996.5,36.4c-7.8-3.8-17.7-5.9-27.8-5.9c-35.2,0-52,26.3-52,58.3c0,30.3,17.5,57.1,51.8,57.1c12,0,21.3-2.3,29.7-6.5         l5.3,19.2c-10.7,5.3-24,7.4-37.3,7.4c-45.7,0-74.1-32-74.1-77.3s27.2-78.1,75.2-78.1c13.1,0,25.7,2.1,35,6.5L996.5,36.4z"/>
							<path d="M1108.3,36.4c-10.5-4-21.9-5.9-32.6-5.9c-13.3,0-27.2,4.6-27.2,19.6c0,11.8,8.2,17.7,29.9,26.5         c26.5,10.7,42.3,21.5,42.3,46.3c0,29.9-25.9,43-53.1,43c-13.5,0-30.5-2.5-45.1-8.4l5.1-20.4c13.7,6.1,28.4,8.8,39.6,8.8         c17.5,0,29.1-7,29.1-21.3c0-13.1-11.4-19.8-32.9-28.4c-24.9-10.1-39.6-22.5-39.6-44c0-29.5,26.7-41.7,51-41.7         c13.9,0,27.4,1.9,38.3,5.9L1108.3,36.4z"/>
							<path d="M1147.5,13h24.6v130.4h63.2v20h-87.8L1147.5,13L1147.5,13z"/>
						</g>
					</g>
				</g>
			</g>
		</g>
	</g>
</g>
<g>
	<g>
		<path class="st0" d="M0,92c0,50.8,41.2,92,92,92V92H0z"/>
		<path class="st1" d="M92,0C41.2,0,0,41.2,0,92h92V0z"/>
	</g>
	<polygon class="st2" points="184,184 92,184 92,92  "/>
	<polygon class="st3" points="92,92 184,92 184,184  "/>
	<polygon class="st4" points="276,92 184,92 184,0  "/>
	<polygon class="st2" points="184,0 276,0 276,92  "/>
	<polygon class="st5" points="184,0 138,46 92,0  "/>
	<polygon class="st6" points="92,92 138,46 184,92  "/>
	<polygon class="st7" points="184,92 138,46 184,0  "/>
	<polygon class="st7" points="276,92 230,138 184,92  "/>
	<polygon class="st5" points="276,184 230,138 276,92  "/>
	<polygon class="st6" points="184,92 230,138 184,184  "/>
</g>
<head xmlns=""/></svg>